:version 1.10
:name ASF
:units
  mass 1
  length 1
  angle deg
:documentation
  ASF file generated by Kaydara
:root
  axis xyz
  order  tx ty tz rx ry rz
  position 0 0 0
  orientation 0 0 0
:bonedata
  begin
    id 1
    name RightUpLegDummy
    direction -0.718183 -0.695806 0.00816078
    length 4.904
    axis 0 0 0 xyz
  end
  begin
    id 2
    name RightUpLeg
    direction -0.0736652 -0.994202 0.0783343
    length 17.4976
    axis -2.72909 -3.00389 -4.00133 xyz
    dof rx ry rz
  end
  begin
    id 3
    name RightLeg
    direction -0.0389037 -0.994596 -0.0962598
    length 16.5821
    axis 3.95836 -18.5909 -4.46993 xyz
    dof rx ry rz
  end
  begin
    id 4
    name RightFoot
    direction -0.311643 -0.412678 0.855906
    length 3.77069
    axis -1.99483 -18.8351 -3.27644 xyz
    dof rx ry rz
  end
  begin
    id 5
    name RightToes
    direction -0.317852 0.0389852 0.947339
    length 3.85082
    axis -2.00228 -18.1713 -3.25211 xyz
    dof rx ry rz
  end
  begin
    id 6
    name SpineDummy
    direction 8.3039e-015 1 4.44677e-016
    length 4.6813
    axis 0 0 0 xyz
  end
  begin
    id 7
    name Spine
    direction -0.000262373 0.999988 0.00493267
    length 10.1015
    axis -0.00246081 0.00062579 0.0150362 xyz
    dof rx ry rz
  end
  begin
    id 8
    name Spine1
    direction 0 0 0
    length 0
    axis -0.00349562 0.000650293 0.0196666 xyz
    dof rx ry rz
  end
  begin
    id 9
    name HEadDummy
    direction -0.000343232 0.999999 0.00123745
    length 3.43865
    axis -0.00349562 0.000650293 0.0196666 xyz
  end
  begin
    id 10
    name HEad
    direction -0.0461221 0.980933 0.188796
    length 5.12695
    axis -0.00351404 -7.04812 0.0199272 xyz
    dof rx ry rz
  end
  begin
    id 11
    name LeftShoulder1Dummy
    direction 0.998904 -0.0399089 -0.0244534
    length 3.5433
    axis -0.00349562 0.000650293 0.0196666 xyz
  end
  begin
    id 12
    name LeftShoulder1
    direction 0.99951 1.64443e-005 0.0312999
    length 4.05031
    axis -0.00349562 0.000650293 0.0196666 xyz
    dof rx ry rz
  end
  begin
    id 13
    name LeftArm
    direction 0.984791 0.0515299 0.165927
    length 12.9126
    axis -64.823 -10.7743 5.20463 xyz
    dof rx ry rz
  end
  begin
    id 14
    name LeftForeArm
    direction 0.984968 0.0534808 0.16425
    length 10.8596
    axis -30.0462 -7.70601 1.87451 xyz
    dof rx ry rz
  end
  begin
    id 15
    name LeftHand
    direction 0.975871 0.0289682 0.216418
    length 6.62295
    axis -20.1348 -6.98077 1.86072 xyz
    dof rx ry rz
  end
  begin
    id 16
    name RightShoulderDummy
    direction -0.998877 -0.0405946 -0.0244307
    length 3.5433
    axis -0.00349562 0.000650293 0.0196666 xyz
  end
  begin
    id 17
    name RightShoulder
    direction -0.998933 -0.0249743 -0.0388558
    length 4.05031
    axis -0.0205316 -4.02113 1.41395 xyz
    dof rx ry rz
  end
  begin
    id 18
    name RightArm
    direction -0.997559 0.068664 0.0127103
    length 12.9638
    axis -67.3882 1.84188 -6.15987 xyz
    dof rx ry rz
  end
  begin
    id 19
    name RightForeArm
    direction -0.991508 0.0912848 0.0926241
    length 10.8312
    axis -22.1975 3.41087 -4.28711 xyz
    dof rx ry rz
  end
  begin
    id 20
    name RightHand
    direction -0.989262 0.0600788 0.133232
    length 6.57864
    axis -12.2911 2.17515 -4.39675 xyz
    dof rx ry rz
  end
  begin
    id 21
    name LeftUpLegDummy
    direction 0.718183 -0.695806 0.00816078
    length 4.904
    axis 0 0 0 xyz
  end
  begin
    id 22
    name LeftUpLeg
    direction 0.0831398 -0.99469 0.0606531
    length 17.4976
    axis -1.71016 2.29552 4.63832 xyz
    dof rx ry rz
  end
  begin
    id 23
    name LeftLeg
    direction 0.0498442 -0.991778 -0.117862
    length 16.5821
    axis 5.13757 15.5727 5.13348 xyz
    dof rx ry rz
  end
  begin
    id 24
    name LeftFoot
    direction 0.269026 -0.433896 0.85986
    length 3.77069
    axis -0.576502 15.6961 4.10267 xyz
    dof rx ry rz
  end
  begin
    id 25
    name LeftToes
    direction 0.277311 0.0251143 0.960452
    length 3.85048
    axis -0.576502 15.6961 4.10267 xyz
    dof rx ry rz
  end
:hierarchy
  begin
    root RightUpLegDummy SpineDummy LeftUpLegDummy
    RightUpLegDummy RightUpLeg
    RightUpLeg RightLeg
    RightLeg RightFoot
    RightFoot RightToes
    SpineDummy Spine
    Spine Spine1
    Spine1 HEadDummy LeftShoulder1Dummy RightShoulderDummy
    HEadDummy HEad
    LeftShoulder1Dummy LeftShoulder1
    LeftShoulder1 LeftArm
    LeftArm LeftForeArm
    LeftForeArm LeftHand
    RightShoulderDummy RightShoulder
    RightShoulder RightArm
    RightArm RightForeArm
    RightForeArm RightHand
    LeftUpLegDummy LeftUpLeg
    LeftUpLeg LeftLeg
    LeftLeg LeftFoot
    LeftFoot LeftToes
  end

:SAMPLES-PER-SECOND 30
:FULLY-SPECIFIED
:DEGREES
47
root  4.30983 37.955 -97.7688 -1.56698 -1.00267 3.20266
RightUpLeg  10.4365 -10.3875 -6.19743
RightLeg  20.1622 0.977592 -5.3044
RightFoot  -20.5571 0.851154 12.202
RightToes  5.82077e-011 -3.18055e-015 -2.98177e-016
Spine  7.261 1.95284 10.2476
Spine1  1.9979 4.48956 -9.04805
HEad  -11.303 -0.626188 0.111936
LeftShoulder1  -3.88251e-019 9.70628e-020 -3.87848e-018
LeftArm  -29.0262 66.3795 -70.0001
LeftForeArm  4.09466 -2.26454 -2.46621
LeftHand  -0.152875 1.771 5.38277
RightShoulder  8.15954 10.8798 37.8805
RightArm  31.5327 -39.6346 22.4709
RightForeArm  1.22034 22.8551 -12.3951
RightHand  -1.36834 6.16939 -13.6727
LeftUpLeg  -22.9849 3.77222 -7.26472
LeftLeg  22.6938 2.44672 8.36361
LeftFoot  -1.18984 -0.230351 2.23537
LeftToes  7.79675e-011 9.80247e-012 -3.28897e-011
48
root  4.80748 37.9037 -96.6903 -1.4625 -0.693683 3.17977
RightUpLeg  9.80884 -12.5721 -7.78203
RightLeg  24.0499 4.0157 -6.70011
RightFoot  -18.5183 0.817814 16.6789
RightToes  5.82077e-011 -3.18055e-015 -2.98177e-016
Spine  6.14067 1.95091 9.85361
Spine1  2.96958 4.45677 -8.66442
HEad  -11.831 -0.388065 0.275657
LeftShoulder1  -3.88251e-019 9.70628e-020 -3.87848e-018
LeftArm  -29.7073 66.1421 -70.6994
LeftForeArm  3.45393 -2.33806 -2.51252
LeftHand  -0.138434 2.48624 6.13076
RightShoulder  8.29018 10.9336 38.3933
RightArm  29.1937 -39.3565 21.4078
RightForeArm  1.28134 22.3885 -12.0886
RightHand  -1.19788 4.98157 -13.3214
LeftUpLeg  -22.5409 1.96713 -7.82128
LeftLeg  25.0823 3.2696 9.60367
LeftFoot  -2.22967 -0.278627 2.85406
LeftToes  7.79675e-011 9.80247e-012 -3.28897e-011
49
root  5.29134 37.9204 -95.6713 -1.2429 0.397084 2.95646
RightUpLeg  7.31332 -12.1113 -8.01274
RightLeg  30.4741 2.46781 -9.75218
RightFoot  -13.4764 0.0811149 20.8319
RightToes  5.82077e-011 -3.18055e-015 -2.98177e-016
Spine  5.39762 1.64875 9.1649
Spine1  3.40529 3.96111 -7.82129
HEad  -12.3714 -0.224712 0.535803
LeftShoulder1  -3.88251e-019 9.70628e-020 -3.87848e-018
LeftArm  -30.243 65.4655 -71.6233
LeftForeArm  2.616 -3.00467 -2.6212
LeftHand  -0.146281 2.62311 6.86023
RightShoulder  8.29423 10.9348 38.4099
RightArm  25.5051 -40.0481 20.4664
RightForeArm  1.25476 22.0841 -11.8371
RightHand  -1.07471 4.03243 -13.1319
LeftUpLeg  -21.7863 -0.134841 -8.31165
LeftLeg  26.6022 4.02177 10.5694
LeftFoot  -5.03397 -0.201429 2.67442
LeftToes  7.79675e-011 9.80247e-012 -3.28897e-011
50
root  5.65775 38.0586 -94.7613 -1.38264 0.732512 3.10562
RightUpLeg  3.07875 -10.6148 -7.77023
RightLeg  38.349 -1.01766 -15.6389
RightFoot  -4.45906 -1.34774 18.4634
RightToes  5.82077e-011 -3.18055e-015 -2.98177e-016
Spine  6.25087 1.64509 7.1346
Spine1  2.63158 3.59273 -6.45464
HEad  -12.4074 0.0662531 0.863073
LeftShoulder1  -3.88251e-019 9.70628e-020 -3.87848e-018
LeftArm  -30.0005 64.6867 -72.128
LeftForeArm  1.83776 -4.42002 -2.79272
LeftHand  -0.18557 1.851 6.76053
RightShoulder  8.15374 10.8772 37.8581
RightArm  21.7822 -41.6156 19.8659
RightForeArm  0.687259 21.961 -11.7313
RightHand  -1.05775 3.8468 -13.1767
LeftUpLeg  -19.7561 0.097846 -9.11488
LeftLeg  26.1294 3.88306 10.3195
LeftFoot  -6.88508 -0.179638 2.97267
LeftToes  7.79675e-011 9.80247e-012 -3.28897e-011
51
root  5.98776 38.2418 -93.9168 -1.51378 0.219251 3.63962
RightUpLeg  -2.33861 -8.90903 -7.52949
RightLeg  45.8753 -2.63972 -21.8355
RightFoot  4.69392 -1.57761 9.75309
RightToes  5.82077e-011 -3.18055e-015 -2.98177e-016
Spine  7.22646 1.7928 4.75278
Spine1  2.11151 3.39408 -5.81375
HEad  -12.0729 0.759612 1.10405
LeftShoulder1  -3.88251e-019 9.70628e-020 -3.87848e-018
LeftArm  -28.5418 63.8298 -71.8141
LeftForeArm  0.945265 -6.71773 -3.16394
LeftHand  -0.221621 0.871764 6.23449
RightShoulder  8.04197 10.8336 37.4108
RightArm  19.3616 -42.8542 19.4684
RightForeArm  -0.0633179 21.791 -11.5694
RightHand  -1.09788 4.0871 -13.3353
LeftUpLeg  -17.2621 1.43529 -10.1919
LeftLeg  24.5813 3.60089 9.58501
LeftFoot  -7.61627 -0.186052 3.45606
LeftToes  7.79675e-011 9.80247e-012 -3.28897e-011
52
root  6.28263 38.433 -93.063 -1.56478 -0.371731 4.05476
RightUpLeg  -7.74274 -7.43889 -6.8126
RightLeg  51.822 -0.963703 -24.7733
RightFoot  8.16311 -0.551465 2.54561
RightToes  5.82077e-011 -3.18055e-015 -2.98177e-016
Spine  7.43822 1.74899 2.61579
Spine1  2.55685 3.02222 -5.41251
HEad  -11.9374 1.74979 1.04843
LeftShoulder1  -3.88251e-019 9.70628e-020 -3.87848e-018
LeftArm  -26.1458 62.4163 -70.8012
LeftForeArm  0.250384 -9.36759 -3.72415
LeftHand  -0.281498 0.179813 6.82106
RightShoulder  8.05344 10.841 37.4501
RightArm  18.4134 -43.1627 19.1374
RightForeArm  -0.0587271 21.4612 -11.2639
RightHand  -1.149 4.36164 -13.5679
LeftUpLeg  -14.732 1.68593 -11.0065
LeftLeg  22.8329 4.24844 9.2292
LeftFoot  -8.34158 -0.162309 3.35977
LeftToes  7.79675e-011 9.80247e-012 -3.28897e-011
